<svg version="1.2" xmlns="http://www.w3.org/2000/svg" viewBox="0 0 1700 956" width="1700" height="956">
	<title>Proyecto nuevo</title>
	<style>
		.s0 { fill: #065553 } 
		.s1 { fill: #065553;stroke: #065553;stroke-miterlimit:100;stroke-width: 1.3 } 
	</style>
	<path id="Z" class="s0" aria-label="Z"  d="m973.5 108.7h-25.3l-332.7 448h25.9zm-348.5 93.4h-4.6l14.6-112.2q28.9 2.9 36.3 3.6 18.2 1.9 33.4 1.9h308.1v13.3l-210.5 283.3q-20.4 28.2-48.9 70-28.6 41.9-44.8 72 16.2 4.9 57.7 10.4 41.6 5.2 67.2 5.2h46.3q11.1 0 41.2-2.6 30.2-2.6 49.3-6.2l34.4-83h4.8l-16.5 112.2h-388.8v-12.6l218.6-295.4q50.5-68 87.2-130.9-12.3-4.9-47-10.7-34.7-5.9-68.8-5.9h-50.2q-17.5 0-48.7 3-31.1 2.9-42.4 5.8z"/>
	<path id="Forma 1" fill-rule="evenodd" class="s1" d="m419 618.5v-6.6l818.8-2v6.7z"/>
	<path id="Zavattaro &amp; Asoc." class="s0" aria-label="Zavattaro &amp; Asoc."  d="m508.3 640.8l-3.8 16.8h3c0.8-2.2 2.4-6 5.2-11.2l0.9-1.6h20l-30.6 49.6v2.8h44.6l4.7-19.2h-3.1c-1.3 3.3-3.7 8.7-7.1 13.9l-0.9 1.3h-21.2l30.8-49.7v-2.7zm58.7 57.2c4.5 0 8.4-1.9 12-5.8h0.3c0.8 3.9 3.1 5.8 7.9 5.8 4.2 0 7.5-1.6 10.7-5l-1.7-2.4c-1 1.2-2.1 1.8-3.2 1.8-2 0-2.8-1.8-2.8-6.2v-15.1c0-5.4-0.5-8-1.7-9.8-1.6-2.4-4.8-3.7-10.1-3.7-5.2 0-10.1 1.3-13.8 3.7-3.7 2.4-5.8 5.7-5.8 8.7 0 3 2 5 4.8 5 2.9 0 5.1-2.1 5.1-4.9 0-1-0.3-2.1-0.3-3.2 0-3.1 2.3-5 5.9-5 3.6 0 4.5 1.8 4.5 8.4v5.4c-14.8 2-21.5 6.3-21.5 13.6 0 5.4 3.7 8.7 9.7 8.7zm6.8-6.9c-2.9 0-4.2-1.6-4.2-4.8 0-4.1 2.1-5.8 9.2-7.2v9.8c-1.3 1.4-3.1 2.2-5 2.2zm48.4 6.9l12.6-31.4c1.6-4.1 2.7-4.9 8.3-5.7v-2.5h-17.2v2.5c3.9 0.6 5.3 1.2 5.3 2.8 0 0.7-0.3 1.6-0.8 2.8l-7.2 18.2h-0.2l-8.3-19.8c-0.2-0.6-0.3-1.1-0.3-1.5 0-1.5 1.4-2.1 5.7-2.5v-2.5h-24.7v2.5c3.9 0.3 4.7 0.9 5.7 3.2l15.3 33.9zm30.8 0c4.5 0 8.4-1.9 12-5.8h0.3c0.8 3.9 3.1 5.8 7.9 5.8 4.2 0 7.5-1.6 10.7-5l-1.7-2.4c-1 1.2-2.1 1.8-3.2 1.8-2 0-2.8-1.8-2.8-6.2v-15.1c0-5.4-0.5-8-1.7-9.8-1.6-2.4-4.8-3.7-10-3.7-5.3 0-10.2 1.3-13.9 3.7-3.7 2.4-5.8 5.7-5.8 8.7 0 3 2 5 4.8 5 2.9 0 5.1-2.1 5.1-4.9 0-1-0.3-2.1-0.3-3.2 0-3.1 2.3-5 5.9-5 3.6 0 4.5 1.8 4.5 8.4v5.4c-14.8 2-21.5 6.3-21.5 13.6 0 5.4 3.7 8.7 9.7 8.7zm6.8-6.9c-2.9 0-4.2-1.6-4.2-4.8 0-4.1 2.1-5.8 9.2-7.2v9.8c-1.3 1.4-3.1 2.2-5 2.2zm41 6.9c4.9 0 9.2-1.7 11.7-5l-1.6-2.4c-1.4 1.6-2.9 2.1-4.6 2.1-1.7 0-3.1-0.8-3.9-2.1-0.6-0.9-0.7-2-0.7-5.5v-23.1h10.3l1.1-3.6h-11.4v-9.5l-2.3-0.3-14.7 11.2 0.4 2.2h5.2v25.5c0 4 0.6 6.8 2.8 8.4 1.9 1.3 4.8 2.1 7.7 2.1zm29.8 0c4.9 0 9.1-1.7 11.7-5l-1.7-2.4c-1.3 1.6-2.8 2.1-4.5 2.1-1.8 0-3.1-0.8-3.9-2.1-0.6-0.9-0.7-2-0.7-5.5v-23.1h10.2l1.1-3.6h-11.3v-9.5l-2.3-0.3-14.7 11.2 0.4 2.2h5.2v25.5c0 4 0.6 6.8 2.8 8.4 1.8 1.3 4.8 2.1 7.7 2.1zm24.8 0c4.5 0 8.4-1.9 12.1-5.8h0.3c0.7 3.9 3 5.8 7.8 5.8 4.2 0 7.6-1.6 10.7-5l-1.7-2.4c-1 1.2-2.1 1.8-3.2 1.8-2 0-2.8-1.8-2.8-6.2v-15.1c0-5.4-0.5-8-1.7-9.8-1.6-2.4-4.7-3.7-10-3.7-5.3 0-10.1 1.3-13.9 3.7-3.6 2.4-5.8 5.7-5.8 8.7 0 3 2 5 4.9 5 2.8 0 5-2.1 5-4.9 0-1-0.3-2.1-0.3-3.2 0-3.1 2.3-5 6-5 3.5 0 4.4 1.8 4.4 8.4v5.4c-14.8 2-21.4 6.3-21.4 13.6 0 5.4 3.6 8.7 9.6 8.7zm6.8-6.9c-2.9 0-4.2-1.6-4.2-4.8 0-4.1 2.1-5.8 9.2-7.2v9.8c-1.3 1.4-3 2.2-5 2.2zm42.5 2.1v-23.1c0.2-0.9 0.4-1.8 1.7-3.2 1.3-1.5 2.9-1.9 3.7-1.9 1.1 0 2.2 0.7 3.5 1.8 1.1 0.9 2.1 1.4 3.4 1.4 3 0 4.7-2.5 4.7-5.1 0-3.2-2.6-5.5-6.3-5.5-3.6 0-7.2 2.2-11.1 6.7v-6.7h-1.5l-15 3.6v1.7l5.5 2.1v28.2l-5.5 1.5v2.5h26.5v-2.5zm40.1-35.6c-13.4 0-20.9 9.1-20.9 20.2 0 11 7.5 20.1 20.9 20.1 13.4 0 20.9-9.1 20.9-20.1 0-11.1-7.5-20.2-20.9-20.2zm-8.6 20.2c0-6.8 1.4-16.4 8.6-16.4 7.3 0 8.6 9.6 8.6 16.4 0 6.8-1.5 16.4-8.6 16.4-7.2 0-8.6-9.6-8.6-16.4zm69.4-12c-10.7 7.6-14.5 11.2-14.5 18.1 0 8.3 5.4 14 17.6 14 5.5 0 11.6-1.2 17.3-6.9l5.2 6.2h16.8v-2.6l-7.1-2.1-8.3-10.3c2.7-4.8 4.5-9.6 5.3-12.6 0.8-3 1.3-4.1 7.1-4.7v-3.1h-18.7v3.1c5.7 0.7 6.3 1 6.3 3.9 0 3-0.7 6.8-2.4 10.5l-13.6-16.8c4.5-3.4 9.1-7.9 9.1-13.2 0-5.5-5-9.3-11.4-9.3-7 0-14.8 4.6-14.8 12.6 0 2.6 0.8 6.7 6.1 13.2zm-3.9 14.3c0-5.4 3-9 6.2-11.5l15.8 19.5c-3.4 2.9-7.4 4.4-10.9 4.4-7.2 0-11.1-6.2-11.1-12.4zm16.3-29.4c0 3.6-1 6.1-3.8 8.8-3.5-4.5-4.9-7.2-4.9-10.5 0-4 2-5.8 4.2-5.8 2.2 0 4.5 1.8 4.5 7.5zm80.4 38.1c0.4 1.2 0.7 2.2 0.7 3 0 1.9-1.9 2.5-7.2 2.7v2.7h30.2v-2.7c-5.4-0.4-6.5-1.1-7.9-4.5l-21-50.7-10.9 4.2 3.4 7.5-13.9 35.3c-2.4 6-3.3 7-10.2 8.2v2.7h22.7v-2.7c-6.1-0.9-8.3-2.1-8.3-4.6 0-0.9 0.3-2 0.9-3.4l2.1-5.6h16.5zm-10.9-29.4l6.4 17.3h-13.3l6.6-17.3zm52.7-1.8c-10.7 0-16.2 3.9-16.2 11.3 0 13.3 17.9 12.1 17.9 20.1 0 3.1-2.5 5.2-6.3 5.2-5 0-8-3.4-8.5-9.8h-3.1l0.4 12c3.1 0.9 7.7 1.5 11.4 1.5 10.1 0 16-4.6 16-12.5 0-13.8-17.7-12.3-17.7-19.7 0-2.7 2.2-4.4 5.6-4.4 4.1 0 6.6 2.6 7.3 7.7h2.8v-10.2c-2.1-0.7-5.9-1.2-9.6-1.2zm38 0c-13.4 0-20.9 9.1-20.9 20.2 0 11 7.5 20.1 20.9 20.1 13.4 0 20.9-9.1 20.9-20.1 0-11.1-7.5-20.2-20.9-20.2zm-8.6 20.2c0-6.8 1.4-16.4 8.6-16.4 7.3 0 8.6 9.6 8.6 16.4 0 6.8-1.5 16.4-8.6 16.4-7.2 0-8.6-9.6-8.6-16.4zm54.5 20.1c7.9 0 13.7-3.4 16.6-10.5l0.4-0.9-2.1-1.6-0.5 0.6c-2.7 3.2-6.5 4.9-10.9 4.9-7.2 0-10.9-5-10.9-14.4 0-9.3 3.6-14.6 9.8-14.6 3.9 0 4.9 2.6 5.3 6.1 0.3 2.2 1.2 4.8 4.9 4.8 3 0 4.9-2 4.9-5 0-5.5-6.6-9.7-15.5-9.7-12.7 0-21.7 8.6-21.7 20.7 0 11.4 8.2 19.6 19.7 19.6zm23.2-6.3c0 3.7 2.6 6.3 6.5 6.3 3.9 0 6.7-2.6 6.7-6.3 0-3.7-2.9-6.4-6.8-6.4-3.8 0-6.4 2.7-6.4 6.4z"/>
</svg>